<svg xmlns="http://www.w3.org/2000/svg" viewBox="0 0 677.42 402.19"><defs><style>.cls-1{fill:#6366f1;}.cls-2,.cls-4{fill:#fff;}.cls-2{opacity:0.8;}.cls-3{opacity:0.4;}.cls-5{fill:#455a64;}.cls-6{fill:#263238;}.cls-7{fill:#ffbe9d;}.cls-8{fill:#eb996e;}.cls-9{opacity:0.3;}</style></defs><g id="Layer_2" data-name="Layer 2"><g id="Capa_8" data-name="Capa 8"><circle class="cls-1" cx="522.85" cy="377.29" r="17.25" transform="translate(74.38 840.53) rotate(-81.74)"/><circle class="cls-2" cx="522.85" cy="377.29" r="17.25" transform="translate(74.38 840.53) rotate(-81.74)"/></g><g id="_404" data-name="404"><path class="cls-1" d="M401.79,244.58q.49,51.66-22.52,79t-63,27.71q-40.2.38-63.91-26.49t-24.22-78.52l-.58-60.56q-.49-51.45,22.52-79t63.21-27.89q40-.39,63.73,26.67T401.21,184ZM357,177.67q-.31-32.53-11.38-48t-32-15.32q-20.92.2-31.59,15.93t-10.35,48.25l.7,73.59q.31,32.7,11.47,48.31t32.07,15.41q20.91-.19,31.49-15.92t10.26-48.62Z"/><g class="cls-3"><path d="M401.79,244.58q.49,51.66-22.52,79t-63,27.71q-40.2.38-63.91-26.49t-24.22-78.52l-.58-60.56q-.49-51.45,22.52-79t63.21-27.89q40-.39,63.73,26.67T401.21,184ZM357,177.67q-.31-32.53-11.38-48t-32-15.32q-20.92.2-31.59,15.93t-10.35,48.25l.7,73.59q.31,32.7,11.47,48.31t32.07,15.41q20.91-.19,31.49-15.92t10.26-48.62Z"/></g><path class="cls-1" d="M427.25,244.34q.5,51.64-22.52,79t-63,27.7q-40.2.39-63.91-26.48T253.58,246L253,185.45q-.5-51.46,22.52-79t63.21-27.89q40-.37,63.73,26.67t24.21,78.52Zm-44.83-66.92q-.32-32.52-11.38-48t-32-15.32q-20.93.19-31.59,15.93t-10.36,48.25l.71,73.58q.32,32.71,11.47,48.32t32.07,15.41q20.91-.19,31.49-15.93T383.12,251Z"/><path class="cls-1" d="M253.18,189.05c0,.13-5.86,2.48-13.2,5.24s-13.34,4.89-13.39,4.75,5.86-2.48,13.2-5.24S253.13,188.91,253.18,189.05Z"/><path class="cls-1" d="M254.65,213c0,.13-5.86,2.48-13.2,5.24s-13.34,4.89-13.39,4.75,5.86-2.48,13.2-5.24S254.6,212.84,254.65,213Z"/><path class="cls-1" d="M256.12,236.91c.05.13-5.86,2.48-13.21,5.24s-13.33,4.89-13.38,4.75,5.86-2.48,13.2-5.24S256.07,236.77,256.12,236.91Z"/><path class="cls-1" d="M257.59,260.84c.05.13-5.86,2.48-13.21,5.24S231.05,271,231,270.83s5.87-2.48,13.21-5.24S257.54,260.7,257.59,260.84Z"/><path class="cls-1" d="M259.06,284.77a4.43,4.43,0,0,1-.92.45c-.6.26-1.48.62-2.56,1-2.18.87-5.19,2-8.53,3.29s-6.38,2.37-8.59,3.14c-1.1.39-2,.7-2.62.9a3.61,3.61,0,0,1-1,.26,4.1,4.1,0,0,1,.92-.45c.6-.26,1.47-.62,2.56-1.05,2.17-.87,5.19-2,8.53-3.29s6.38-2.36,8.59-3.14c1.1-.39,2-.7,2.62-.9A3.44,3.44,0,0,1,259.06,284.77Z"/><path class="cls-1" d="M265.89,306.66a20.08,20.08,0,0,1-3,1.33c-1.9.76-4.53,1.78-7.44,2.88s-5.57,2.06-7.49,2.73a19.53,19.53,0,0,1-3.16,1,20.58,20.58,0,0,1,3-1.33c1.89-.76,4.52-1.78,7.44-2.88s5.56-2.06,7.49-2.73A19.63,19.63,0,0,1,265.89,306.66Z"/><path class="cls-1" d="M280.52,326.74a16.29,16.29,0,0,1-2.69,1.21c-1.69.68-4,1.59-6.62,2.57s-5,1.83-6.68,2.43a16.55,16.55,0,0,1-2.82.86,17.39,17.39,0,0,1,2.69-1.21c1.69-.68,4-1.59,6.62-2.57s5-1.83,6.68-2.43A16.55,16.55,0,0,1,280.52,326.74Z"/><path class="cls-1" d="M304.83,339.91a18.09,18.09,0,0,1-2.69,1.2c-1.69.69-4,1.6-6.62,2.57s-5,1.84-6.68,2.43A15.47,15.47,0,0,1,286,347a18.09,18.09,0,0,1,2.69-1.2c1.69-.69,4-1.6,6.62-2.57s5-1.83,6.68-2.43A15.47,15.47,0,0,1,304.83,339.91Z"/><path class="cls-1" d="M378.15,288.85c.06.13-7.53,3.67-16.95,7.9s-17.11,7.56-17.17,7.43,7.53-3.67,17-7.9S378.09,288.71,378.15,288.85Z"/><path class="cls-1" d="M383.13,268.34c.06.13-6.21,3.08-14,6.58S355,281.15,354.93,281s6.2-3.08,14-6.58S383.07,268.21,383.13,268.34Z"/><path class="cls-1" d="M385.42,245.31c.06.13-6.2,3.07-14,6.57s-14.15,6.24-14.21,6.11,6.2-3.08,14-6.58S385.36,245.18,385.42,245.31Z"/><path class="cls-1" d="M387.71,222.28c.06.13-6.2,3.07-14,6.57s-14.15,6.24-14.21,6.11,6.21-3.08,14-6.58S387.66,222.14,387.71,222.28Z"/><path class="cls-1" d="M390,199.24c.05.13-6.21,3.08-14,6.58s-14.15,6.23-14.21,6.1,6.21-3.07,14-6.57S390,199.11,390,199.24Z"/><path class="cls-1" d="M385.42,178.73c.06.13-6.2,3.08-14,6.58s-14.15,6.23-14.21,6.1,6.2-3.07,14-6.58S385.36,178.6,385.42,178.73Z"/><path class="cls-1" d="M385.42,156.65c.06.13-6.2,3.08-14,6.58s-14.15,6.23-14.21,6.1,6.2-3.07,14-6.58S385.36,156.52,385.42,156.65Z"/><path class="cls-1" d="M383.13,135.86c.06.13-6.21,3.08-14,6.58s-14.15,6.23-14.21,6.1,6.2-3.08,14-6.58S383.07,135.73,383.13,135.86Z"/><path class="cls-1" d="M363.38,121.38a86.83,86.83,0,0,1-8.47,4.09,85.54,85.54,0,0,1-8.69,3.62,85.43,85.43,0,0,1,8.47-4.1A81.37,81.37,0,0,1,363.38,121.38Z"/><path class="cls-1" d="M352.82,112.5a86.8,86.8,0,0,1-8.47,4.1,81.37,81.37,0,0,1-8.69,3.61,85.45,85.45,0,0,1,8.47-4.09A85.54,85.54,0,0,1,352.82,112.5Z"/><path class="cls-1" d="M254.31,160c.05.14-5.86,2.48-13.2,5.24s-13.34,4.89-13.39,4.76,5.86-2.49,13.21-5.25S254.26,159.91,254.31,160Z"/><path class="cls-1" d="M261.67,130.2c.06.13-6.36,2.67-14.31,5.66s-14.46,5.3-14.51,5.17,6.36-2.67,14.32-5.66S261.62,130.06,261.67,130.2Z"/><path class="cls-1" d="M280.9,100.66c.05.14-8.08,3.32-18.16,7.1s-18.29,6.75-18.34,6.62,8.08-3.32,18.16-7.1S280.85,100.53,280.9,100.66Z"/><path class="cls-4" d="M422.94,289.18l-.42-.15-1.2-.46c-.53-.2-1.22-.34-2-.57a19.26,19.26,0,0,0-2.83-.34c-4.27-.28-10.67,1.28-16.86,5.91a47.91,47.91,0,0,0-8.93,8.83c-2.87,3.51-5.68,7.48-8.87,11.49a52.82,52.82,0,0,1-11.52,11.17,41.9,41.9,0,0,1-15.94,6.46,41.14,41.14,0,0,1-17.19-.58,80.6,80.6,0,0,1-15.06-5.59c-4.65-2.15-9-4.34-13.14-6.15A69.71,69.71,0,0,0,297,315.15a44.1,44.1,0,0,0-10.3-1.19A31.34,31.34,0,0,0,279,315a28.23,28.23,0,0,0-4.62,1.81l-1.14.61-.4.19a2.67,2.67,0,0,1,.37-.24l1.12-.65a25.61,25.61,0,0,1,4.61-1.91,30.81,30.81,0,0,1,7.8-1.15,43.94,43.94,0,0,1,10.39,1.12,68.29,68.29,0,0,1,12,4c4.18,1.79,8.53,4,13.17,6.11a81.47,81.47,0,0,0,15,5.53,40.45,40.45,0,0,0,17,.55A41.27,41.27,0,0,0,370,324.63a52.31,52.31,0,0,0,11.44-11c3.19-4,6-7.95,8.91-11.46a48,48,0,0,1,9-8.86c6.28-4.64,12.77-6.16,17.09-5.82a19.13,19.13,0,0,1,2.86.4c.8.24,1.49.4,2,.62l1.19.51A1.91,1.91,0,0,1,422.94,289.18Z"/><path class="cls-4" d="M429.25,222.43s-.71.15-1.95.56a19.48,19.48,0,0,0-4.82,2.58c-1.91,1.33-4,3.19-6.42,5.12a46.24,46.24,0,0,1-8.59,5.28,47.27,47.27,0,0,1-17.66,4.57c-1.17.09-2.24.06-3.17.08s-1.73-.05-2.38-.1l-1.5-.16a1.66,1.66,0,0,1-.52-.09,2.59,2.59,0,0,1,.52,0l1.51.05,2.37,0c.93-.05,2,0,3.14-.16a49.16,49.16,0,0,0,17.47-4.67,47.86,47.86,0,0,0,8.52-5.19c2.43-1.89,4.54-3.73,6.5-5a18,18,0,0,1,5-2.48,11.71,11.71,0,0,1,1.48-.32A2.11,2.11,0,0,1,429.25,222.43Z"/><path class="cls-4" d="M298.62,245.6a2,2,0,0,1-.54-.08c-.36-.08-.89-.16-1.56-.34a24.3,24.3,0,0,1-5.36-2.35,55.36,55.36,0,0,1-7-5.12c-2.51-2.07-5.19-4.45-8.26-6.57a28.93,28.93,0,0,0-23.73-4.29c-1.33.34-2,.6-2.06.55a1.84,1.84,0,0,1,.51-.23,13.14,13.14,0,0,1,1.5-.51,25.31,25.31,0,0,1,5.75-1,28.17,28.17,0,0,1,18.32,5.1c3.11,2.15,5.79,4.54,8.28,6.63a57.31,57.31,0,0,0,6.88,5.17,26,26,0,0,0,5.23,2.47A20,20,0,0,1,298.62,245.6Z"/><path class="cls-4" d="M298.8,151.07a10.55,10.55,0,0,1-1.67.61c-.54.19-1.2.4-2,.6s-1.68.46-2.69.64-2.1.43-3.3.58-2.47.29-3.82.41a59.33,59.33,0,0,1-8.8-.1,58.73,58.73,0,0,1-8.67-1.54c-1.3-.37-2.55-.7-3.68-1.12s-2.19-.79-3.13-1.18-1.78-.79-2.52-1.14-1.35-.67-1.85-1a11.57,11.57,0,0,1-1.52-.91,11.53,11.53,0,0,1,1.61.73c.51.26,1.14.56,1.89.87s1.57.72,2.53,1.06,2,.76,3.13,1.11,2.36.71,3.66,1.06a56.16,56.16,0,0,0,17.32,1.63c1.34-.1,2.62-.18,3.8-.36s2.28-.33,3.28-.51,1.89-.39,2.68-.57,1.47-.34,2-.5A12.55,12.55,0,0,1,298.8,151.07Z"/><path class="cls-4" d="M423.57,150.82s-.15-.06-.42-.2L422,150a17.51,17.51,0,0,0-1.86-1c-.74-.36-1.56-.82-2.53-1.19l-1.5-.62c-.53-.22-1.09-.38-1.67-.58-1.14-.42-2.41-.71-3.74-1a41.18,41.18,0,0,0-17.68-.16c-1.33.32-2.61.59-3.76,1-.58.19-1.15.34-1.68.54l-1.51.6a27.52,27.52,0,0,0-2.55,1.15,18.31,18.31,0,0,0-1.87,1l-1.18.65a2.81,2.81,0,0,1-.42.2s.11-.12.37-.29l1.12-.74a15.93,15.93,0,0,1,1.85-1.06,27.69,27.69,0,0,1,2.54-1.23l1.52-.63c.52-.22,1.1-.38,1.68-.58a38.24,38.24,0,0,1,3.79-1,40.12,40.12,0,0,1,17.89.16c1.34.36,2.62.67,3.77,1.11.58.21,1.15.39,1.67.61l1.51.66a28,28,0,0,1,2.52,1.27,16.33,16.33,0,0,1,1.82,1.1l1.12.76A1.75,1.75,0,0,1,423.57,150.82Z"/><path class="cls-4" d="M362.44,82.9s-.25.16-.73.43l-2.12,1.15c-1.85,1-4.53,2.4-7.89,4.07-6.7,3.32-16.11,7.84-27.25,10.66a74,74,0,0,1-16,2.22,57.43,57.43,0,0,1-13.13-1.12,46.24,46.24,0,0,1-8.5-2.6c-1-.38-1.69-.78-2.19-1a4.52,4.52,0,0,1-.75-.39,4.85,4.85,0,0,1,.79.3c.52.19,1.24.56,2.23.91a49.13,49.13,0,0,0,8.49,2.42,58.41,58.41,0,0,0,13.05,1,76.28,76.28,0,0,0,15.87-2.24c11.07-2.81,20.49-7.26,27.22-10.49l8-3.92,2.16-1.07A4.66,4.66,0,0,1,362.44,82.9Z"/><path class="cls-1" d="M161.69,257.13l33.43,1.46L193.57,294l-33.43-1.46-2.57,58.87-44-1.92,2.57-58.87-113.56-5,.09-27,121-173.8,45.42,2Zm-115-5,71,3.1,4.69-107.38-1.08-.41-4,7.65Z"/><g class="cls-3"><path d="M161.69,257.13l33.43,1.46L193.57,294l-33.43-1.46-2.57,58.87-44-1.92,2.57-58.87-113.56-5,.09-27,121-173.8,45.42,2Zm-115-5,71,3.1,4.69-107.38-1.08-.41-4,7.65Z"/></g><path class="cls-1" d="M189.65,258.35l33.43,1.46-1.55,35.43-33.43-1.46-2.57,58.87-44-1.92,2.57-58.87-113.56-5,.09-27,121-173.8,45.42,2Zm-115-5,71.05,3.1,4.68-107.38-1.07-.41-4,7.65Z"/><path class="cls-1" d="M31.22,265.05a4.94,4.94,0,0,1-1.08.61c-.71.36-1.75.86-3,1.47-2.57,1.2-6.16,2.82-10.16,4.51s-7.67,3.14-10.33,4.15c-1.33.5-2.42.9-3.17,1.16a6.39,6.39,0,0,1-1.19.35,5.79,5.79,0,0,1,1.12-.54l3.1-1.31,10.26-4.29L27,266.79l3.11-1.32A6.3,6.3,0,0,1,31.22,265.05Z"/><path class="cls-1" d="M47.5,235.11a11.48,11.48,0,0,1-1.51.79c-1,.48-2.42,1.16-4.2,2-3.57,1.63-8.52,3.8-14,6.13s-10.52,4.36-14.17,5.79c-1.82.71-3.3,1.27-4.34,1.64a11.33,11.33,0,0,1-1.62.53,9.91,9.91,0,0,1,1.55-.72l4.28-1.79,14.1-5.93,14.08-6,4.27-1.81A8.85,8.85,0,0,1,47.5,235.11Z"/><path class="cls-1" d="M67.37,208.41a12.8,12.8,0,0,1-1.58.79c-1,.48-2.53,1.16-4.39,2-3.73,1.63-8.9,3.8-14.64,6.13s-11,4.36-14.79,5.79c-1.9.71-3.44,1.27-4.52,1.64a9.72,9.72,0,0,1-1.69.52,13.59,13.59,0,0,1,1.62-.71l4.46-1.8,14.72-5.93,14.69-6L65.71,209A9.38,9.38,0,0,1,67.37,208.41Z"/><path class="cls-1" d="M147,239.25a6.12,6.12,0,0,1-1.09.58c-.71.35-1.75.83-3.05,1.42-2.58,1.16-6.18,2.72-10.19,4.34s-7.68,3-10.34,4c-1.34.48-2.42.86-3.17,1.11a4.94,4.94,0,0,1-1.19.33,5.22,5.22,0,0,1,1.11-.52l3.12-1.26,10.28-4.11,10.24-4.2c1.23-.5,2.27-.93,3.11-1.26A5,5,0,0,1,147,239.25Z"/><path class="cls-1" d="M143.72,294.18a4.82,4.82,0,0,1-1.05.59c-.69.35-1.69.83-2.95,1.41-2.5,1.17-6,2.72-9.87,4.35s-7.45,3-10,4c-1.3.48-2.35.86-3.08,1.11a5.79,5.79,0,0,1-1.16.33,5.76,5.76,0,0,1,1.08-.52l3-1.26,10-4.11,9.92-4.2,3-1.27A6.65,6.65,0,0,1,143.72,294.18Z"/><path class="cls-1" d="M143.26,313.44a5.14,5.14,0,0,1-1,.58c-.69.35-1.7.83-3,1.42-2.5,1.16-6,2.72-9.87,4.34s-7.45,3-10,4c-1.29.48-2.34.85-3.08,1.1a5.74,5.74,0,0,1-1.15.34,5,5,0,0,1,1.08-.53l3-1.26,10-4.11,9.93-4.2,3-1.26A5.44,5.44,0,0,1,143.26,313.44Z"/><path class="cls-1" d="M142.8,332.69a5.18,5.18,0,0,1-1.05.59c-.69.35-1.7.83-2.95,1.41-2.51,1.17-6,2.72-9.88,4.35s-7.44,3-10,4c-1.29.48-2.35.86-3.08,1.11a6,6,0,0,1-1.15.33,5,5,0,0,1,1.08-.52l3-1.26,10-4.11,9.93-4.2,3-1.26A5.92,5.92,0,0,1,142.8,332.69Z"/><path class="cls-1" d="M147.48,218.9a5.69,5.69,0,0,1-1.09.59c-.71.35-1.75.83-3,1.41-2.58,1.17-6.18,2.72-10.19,4.35s-7.67,3-10.34,4c-1.34.48-2.42.86-3.17,1.11a6.54,6.54,0,0,1-1.19.33,5.18,5.18,0,0,1,1.12-.52l3.11-1.26L133,224.77l10.24-4.2,3.11-1.27A5.66,5.66,0,0,1,147.48,218.9Z"/><path class="cls-1" d="M148,198.56a6.48,6.48,0,0,1-1.09.59c-.71.35-1.75.83-3,1.41-2.58,1.17-6.18,2.72-10.19,4.35s-7.67,3-10.34,4c-1.34.48-2.42.86-3.17,1.1a6.21,6.21,0,0,1-1.19.34,5.15,5.15,0,0,1,1.12-.53l3.11-1.26,10.28-4.11,10.24-4.2,3.11-1.26A5.66,5.66,0,0,1,148,198.56Z"/><path class="cls-1" d="M148.52,178.22a5.73,5.73,0,0,1-1,.56c-.67.33-1.66.8-2.89,1.36-2.47,1.11-5.89,2.6-9.71,4.15s-7.32,2.86-9.86,3.77c-1.27.45-2.3.81-3,1.05a5.4,5.4,0,0,1-1.14.31,5.53,5.53,0,0,1,1.07-.5l3-1.21,9.8-3.91,9.75-4,3-1.2A5,5,0,0,1,148.52,178.22Z"/><path class="cls-1" d="M150.82,159.21a29.12,29.12,0,0,1-5,2.13,27.89,27.89,0,0,1-5.19,1.65,28.78,28.78,0,0,1,5-2.13A27.85,27.85,0,0,1,150.82,159.21Z"/><path class="cls-1" d="M87.2,180.72a11.19,11.19,0,0,1-1.57.8c-1,.48-2.53,1.15-4.4,2-3.72,1.62-8.89,3.79-14.64,6.12s-11,4.37-14.78,5.79c-1.9.71-3.45,1.27-4.52,1.65a13.78,13.78,0,0,1-1.69.52,11.09,11.09,0,0,1,1.62-.71l4.46-1.8,14.72-5.93,14.69-6,4.45-1.82A13.28,13.28,0,0,1,87.2,180.72Z"/><path class="cls-1" d="M107,153a12.8,12.8,0,0,1-1.58.79c-1,.48-2.53,1.16-4.39,2-3.72,1.63-8.9,3.8-14.64,6.13s-11,4.36-14.78,5.79c-1.91.71-3.45,1.27-4.53,1.64a10.12,10.12,0,0,1-1.68.52,12,12,0,0,1,1.61-.71l4.46-1.8c3.85-1.54,9-3.63,14.72-5.93l14.7-6,4.45-1.81A9.38,9.38,0,0,1,107,153Z"/><path class="cls-1" d="M125.37,125.35a11,11,0,0,1-1.58.8c-1,.48-2.52,1.15-4.39,2-3.72,1.63-8.9,3.8-14.64,6.13S93.79,138.61,90,140c-1.9.71-3.45,1.27-4.52,1.64a13.06,13.06,0,0,1-1.69.53,11.09,11.09,0,0,1,1.62-.71l4.46-1.8,14.72-5.93,14.69-6,4.45-1.82A13.28,13.28,0,0,1,125.37,125.35Z"/><path class="cls-1" d="M144.45,98.73a11.81,11.81,0,0,1-1.58.8c-1,.48-2.53,1.15-4.39,2-3.72,1.62-8.9,3.79-14.64,6.12s-11,4.37-14.79,5.79c-1.9.72-3.44,1.27-4.52,1.65a11,11,0,0,1-1.69.52,11.8,11.8,0,0,1,1.62-.71l4.46-1.8,14.72-5.93,14.69-6,4.46-1.82A12,12,0,0,1,144.45,98.73Z"/><path class="cls-4" d="M195.07,139.41a4.68,4.68,0,0,1-.58.65,19.78,19.78,0,0,1-1.81,1.75,31.77,31.77,0,0,1-7.77,5,33.87,33.87,0,0,1-13.36,3,31.27,31.27,0,0,1-8.09-.9,41.63,41.63,0,0,1-8.17-3.06c-5.38-2.62-10.16-5.71-14.83-7.86a34,34,0,0,0-13.1-3.42,19.42,19.42,0,0,0-8.93,1.67,16.57,16.57,0,0,0-2.17,1.24,4.84,4.84,0,0,1-.74.47,6.16,6.16,0,0,1,.68-.55,14,14,0,0,1,2.14-1.34,19.08,19.08,0,0,1,9-1.85,33.72,33.72,0,0,1,13.29,3.35c4.72,2.14,9.52,5.23,14.85,7.83a42,42,0,0,0,8.08,3,31.09,31.09,0,0,0,7.95.92,34.18,34.18,0,0,0,13.22-2.9,33.28,33.28,0,0,0,7.79-4.83c.85-.68,1.45-1.28,1.87-1.67A4.06,4.06,0,0,1,195.07,139.41Z"/><path class="cls-4" d="M181.15,90a8.14,8.14,0,0,1-1.27.74c-.83.46-2.07,1-3.63,1.7a54,54,0,0,1-5.6,2A59.93,59.93,0,0,1,163.56,96a61.75,61.75,0,0,1-7.25.71,53.2,53.2,0,0,1-5.95-.12,38.33,38.33,0,0,1-4-.46,8.44,8.44,0,0,1-1.44-.29,7.68,7.68,0,0,1,1.47.09c.94.11,2.29.22,4,.3s3.69.09,5.91,0a67.62,67.62,0,0,0,7.18-.74,66.65,66.65,0,0,0,7.05-1.58c2.13-.62,4-1.26,5.59-1.88s2.82-1.14,3.68-1.54A8.14,8.14,0,0,1,181.15,90Z"/><path class="cls-4" d="M110.15,201a7.42,7.42,0,0,1-.9-1l-2.36-2.82a114.29,114.29,0,0,0-8.38-8.75,30.07,30.07,0,0,0-5.25-4,15.74,15.74,0,0,0-5-1.95,14.37,14.37,0,0,0-5,0s.11-.06.33-.13a5.5,5.5,0,0,1,1-.23,11.2,11.2,0,0,1,3.71,0A15.75,15.75,0,0,1,93.5,184a29.14,29.14,0,0,1,5.37,4.07,89.67,89.67,0,0,1,8.3,8.9c1,1.21,1.74,2.22,2.24,2.93A5.93,5.93,0,0,1,110.15,201Z"/><path class="cls-4" d="M189.92,231.24a2.79,2.79,0,0,1-.39.3c-.27.17-.65.46-1.19.76a27.93,27.93,0,0,1-4.69,2.23,30.6,30.6,0,0,1-32-6.55,28.06,28.06,0,0,1-3.44-3.89c-.37-.49-.61-.9-.79-1.17s-.26-.42-.24-.43.43.53,1.19,1.48a33.21,33.21,0,0,0,3.53,3.74,31.09,31.09,0,0,0,31.59,6.47,32.72,32.72,0,0,0,4.71-2.06A16.06,16.06,0,0,1,189.92,231.24Z"/><path class="cls-4" d="M219.05,294.55s-.1-.15-.28-.46l-.8-1.39a39,39,0,0,0-3.42-5.07l-1.36-1.6-.73-.87-.85-.83-1.8-1.77-2.1-1.75a47.28,47.28,0,0,0-11-6.53,45.12,45.12,0,0,0-15-3.49,41.94,41.94,0,0,0-17.43,2.8c-5.85,2.3-11.5,5.78-17.48,9.14a84.54,84.54,0,0,1-9.39,4.65,38,38,0,0,1-10.45,2.74,33.78,33.78,0,0,1-10.78-.65,47.65,47.65,0,0,1-9.93-3.39A103.47,103.47,0,0,1,89.32,275.8c-5.14-3.65-10-7.17-14.82-10a54,54,0,0,0-14.23-6.08,36.72,36.72,0,0,0-12.71-.84,26.88,26.88,0,0,0-9.23,2.68,23.35,23.35,0,0,0-5,3.44l-1.13,1.13c-.25.25-.39.37-.39.37s.11-.14.36-.4l1.09-1.17a22.1,22.1,0,0,1,5-3.55,26.72,26.72,0,0,1,9.29-2.79,37,37,0,0,1,12.83.77,53.84,53.84,0,0,1,14.36,6.07c4.87,2.81,9.73,6.33,14.87,10a103,103,0,0,0,16.85,10.2,47.88,47.88,0,0,0,9.83,3.36,33.38,33.38,0,0,0,10.62.64,38.33,38.33,0,0,0,10.31-2.71,83.58,83.58,0,0,0,9.34-4.62c6-3.34,11.64-6.82,17.54-9.14a39.35,39.35,0,0,1,4.47-1.44c.74-.19,1.48-.41,2.22-.57l2.24-.37a42.78,42.78,0,0,1,8.7-.4,45.72,45.72,0,0,1,15.17,3.58,47.86,47.86,0,0,1,11,6.64l2.1,1.78,1.79,1.8.84.84c.25.3.5.59.73.88.48.57.93,1.11,1.35,1.63a36,36,0,0,1,3.35,5.14q.49.92.75,1.41C219,294.38,219.05,294.55,219.05,294.55Z"/><path class="cls-4" d="M188.83,336.32a2,2,0,0,1-.51.13l-1.48.29a23.43,23.43,0,0,1-2.35.34c-.92.09-2,.25-3.14.27l-1.84.08c-.63,0-1.3,0-2,0-1.37,0-2.84-.13-4.38-.25a60.47,60.47,0,0,1-9.87-1.92,59.27,59.27,0,0,1-9.36-3.68c-1.36-.73-2.67-1.39-3.83-2.14-.58-.37-1.16-.69-1.69-1.06l-1.5-1.05c-1-.65-1.77-1.34-2.5-1.92a22,22,0,0,1-1.81-1.55l-1.09-1c-.24-.24-.37-.37-.35-.39a3.07,3.07,0,0,1,.42.31l1.16,1c.49.42,1.1.93,1.85,1.48s1.55,1.22,2.53,1.84c.49.32,1,.66,1.51,1s1.11.66,1.69,1c1.16.72,2.47,1.37,3.83,2.08a62.48,62.48,0,0,0,9.29,3.61,61.49,61.49,0,0,0,9.77,1.94c1.53.13,3,.29,4.35.3.68,0,1.34.06,2,0l1.82,0c1.16,0,2.21-.13,3.13-.19s1.71-.16,2.35-.25l1.49-.19A1.79,1.79,0,0,1,188.83,336.32Z"/><path class="cls-1" d="M596,257.54l33.3-3.25,3.45,35.29-33.3,3.26,5.73,58.64-43.8,4.29-5.73-58.65L442.47,308.19l-3.71-26.73L534.11,92.37,579.36,88ZM481.37,268.75l70.77-6.92-10.46-107-1.12-.26-2.86,8.14Z"/><g class="cls-3"><path d="M596,257.54l33.3-3.25,3.45,35.29-33.3,3.26,5.73,58.64-43.8,4.29-5.73-58.65L442.47,308.19l-3.71-26.73L534.11,92.37,579.36,88ZM481.37,268.75l70.77-6.92-10.46-107-1.12-.26-2.86,8.14Z"/></g><path class="cls-1" d="M623.8,254.82l33.3-3.26,3.46,35.3-33.31,3.26L633,348.76,589.18,353l-5.73-58.64L470.32,305.46l-3.71-26.72L562,89.65l45.25-4.43ZM509.23,266,580,259.1l-10.46-107-1.13-.25L565.56,160Z"/><path class="cls-1" d="M467.89,283.74a6,6,0,0,1-1,.75c-.65.46-1.61,1.1-2.8,1.88-2.39,1.56-5.71,3.66-9.44,5.9s-7.14,4.19-9.64,5.56c-1.24.68-2.26,1.23-3,1.59a6.08,6.08,0,0,1-1.13.52,5.63,5.63,0,0,1,1-.7l2.89-1.73,9.56-5.69,9.5-5.76,2.89-1.74A6.46,6.46,0,0,1,467.89,283.74Z"/><path class="cls-1" d="M479.79,251.8a9.81,9.81,0,0,1-1.38,1c-.9.62-2.23,1.49-3.88,2.54-3.3,2.11-7.9,5-13,8s-9.81,5.8-13.22,7.72c-1.7,1-3.09,1.73-4.06,2.24a11.91,11.91,0,0,1-1.53.75,10.06,10.06,0,0,1,1.43-.92l4-2.38,13.13-7.86,13.1-7.9,4-2.4A11.42,11.42,0,0,1,479.79,251.8Z"/><path class="cls-1" d="M495.71,222.57a11.4,11.4,0,0,1-1.45,1c-.95.62-2.34,1.5-4.07,2.57-3.46,2.13-8.28,5-13.64,8.12s-10.25,5.87-13.82,7.81c-1.78,1-3.23,1.75-4.24,2.27a10.32,10.32,0,0,1-1.6.75,11.74,11.74,0,0,1,1.5-.93l4.16-2.41,13.74-7.94,13.71-8,4.15-2.42A11.76,11.76,0,0,1,495.71,222.57Z"/><path class="cls-1" d="M578.85,241.91a5.66,5.66,0,0,1-1,.73c-.65.45-1.62,1.07-2.81,1.83-2.4,1.52-5.74,3.56-9.48,5.74s-7.18,4.06-9.69,5.39c-1.25.66-2.27,1.18-3,1.53a5.09,5.09,0,0,1-1.13.5,5.43,5.43,0,0,1,1-.67l2.91-1.69,9.6-5.51,9.54-5.6,2.91-1.69A5.59,5.59,0,0,1,578.85,241.91Z"/><path class="cls-1" d="M583.37,296.76a5.43,5.43,0,0,1-1,.72c-.63.45-1.56,1.07-2.72,1.82-2.31,1.5-5.54,3.53-9.16,5.69s-6.95,4-9.38,5.34c-1.21.66-2.2,1.18-2.89,1.53a4.47,4.47,0,0,1-1.1.49,6.52,6.52,0,0,1,1-.67L561,310l9.29-5.47L579.5,299l2.81-1.68A5.34,5.34,0,0,1,583.37,296.76Z"/><path class="cls-1" d="M585.62,315.89a5.43,5.43,0,0,1-1,.72c-.63.44-1.56,1.06-2.72,1.82-2.31,1.5-5.54,3.53-9.16,5.69s-6.95,4-9.38,5.34c-1.21.66-2.2,1.18-2.89,1.53a4.47,4.47,0,0,1-1.1.49,6.52,6.52,0,0,1,1-.67l2.81-1.67,9.29-5.47,9.24-5.55,2.81-1.68A5.34,5.34,0,0,1,585.62,315.89Z"/><path class="cls-1" d="M587.87,335a5.12,5.12,0,0,1-1,.73c-.63.44-1.56,1.06-2.72,1.82-2.31,1.5-5.54,3.53-9.16,5.69s-6.95,4-9.38,5.34c-1.21.66-2.2,1.18-2.89,1.53a5,5,0,0,1-1.1.49,5.72,5.72,0,0,1,1-.67l2.81-1.67,9.29-5.47,9.24-5.56,2.81-1.67A5.13,5.13,0,0,1,587.87,335Z"/><path class="cls-1" d="M576.5,221.7a5.28,5.28,0,0,1-1,.73c-.66.44-1.62,1.07-2.82,1.83-2.39,1.52-5.74,3.56-9.48,5.73s-7.18,4.06-9.68,5.39c-1.26.67-2.28,1.19-3,1.54a5.78,5.78,0,0,1-1.13.5,6.12,6.12,0,0,1,1-.68l2.9-1.68,9.6-5.52,9.55-5.6,2.9-1.68A5.59,5.59,0,0,1,576.5,221.7Z"/><path class="cls-1" d="M574.16,201.48a6.57,6.57,0,0,1-1,.74c-.66.44-1.62,1.07-2.82,1.83-2.39,1.51-5.73,3.56-9.47,5.73s-7.18,4.06-9.69,5.39c-1.25.66-2.27,1.19-3,1.54a6.1,6.1,0,0,1-1.13.5,5.71,5.71,0,0,1,1-.68l2.9-1.68,9.6-5.52,9.55-5.6,2.91-1.69A5.59,5.59,0,0,1,574.16,201.48Z"/><path class="cls-1" d="M571.81,181.27a5.11,5.11,0,0,1-.94.7c-.63.43-1.55,1-2.68,1.75-2.28,1.45-5.46,3.41-9,5.48s-6.84,3.86-9.23,5.12c-1.2.63-2.17,1.13-2.85,1.46a5.37,5.37,0,0,1-1.08.47,5.93,5.93,0,0,1,1-.65l2.76-1.61,9.15-5.24,9.09-5.34,2.77-1.61A5.19,5.19,0,0,1,571.81,181.27Z"/><path class="cls-1" d="M571.41,162.13a29.14,29.14,0,0,1-4.66,2.82,29.46,29.46,0,0,1-4.91,2.36,56.68,56.68,0,0,1,9.57-5.18Z"/><path class="cls-1" d="M511.45,192.37a10.71,10.71,0,0,1-1.44,1c-1,.62-2.35,1.5-4.08,2.57-3.45,2.13-8.27,5-13.63,8.12s-10.25,5.87-13.82,7.81c-1.78,1-3.24,1.75-4.25,2.27a11.13,11.13,0,0,1-1.59.75,10.85,10.85,0,0,1,1.5-.93l4.16-2.41L492,203.62l13.71-8,4.15-2.42A12.15,12.15,0,0,1,511.45,192.37Z"/><path class="cls-1" d="M527.2,162.17a11.4,11.4,0,0,1-1.45,1c-1,.62-2.34,1.5-4.07,2.57-3.46,2.13-8.28,5-13.63,8.12s-10.26,5.87-13.83,7.81c-1.78,1-3.23,1.75-4.24,2.27a10.32,10.32,0,0,1-1.6.75,11.74,11.74,0,0,1,1.5-.93l4.16-2.41,13.74-7.94,13.71-8,4.16-2.42A11.38,11.38,0,0,1,527.2,162.17Z"/><path class="cls-1" d="M541.46,132.18a11.4,11.4,0,0,1-1.45,1c-1,.62-2.34,1.5-4.07,2.57-3.46,2.13-8.28,5-13.64,8.12s-10.25,5.87-13.82,7.82c-1.78,1-3.23,1.74-4.24,2.26a11.87,11.87,0,0,1-1.6.76,9.86,9.86,0,0,1,1.5-.94l4.16-2.41L522,143.43l13.71-8L539.9,133A11.76,11.76,0,0,1,541.46,132.18Z"/><path class="cls-1" d="M556.6,103.14a10.71,10.71,0,0,1-1.45,1c-.95.62-2.34,1.5-4.07,2.56-3.46,2.14-8.28,5-13.64,8.13s-10.25,5.86-13.82,7.81c-1.78,1-3.23,1.74-4.24,2.26a11.87,11.87,0,0,1-1.6.76,12.35,12.35,0,0,1,1.5-.94l4.16-2.4,13.74-7.94,13.71-8L555,104A11.76,11.76,0,0,1,556.6,103.14Z"/><path class="cls-4" d="M612.44,136.3a4.85,4.85,0,0,1-.48.73,19.55,19.55,0,0,1-1.55,2,31.58,31.58,0,0,1-7,6.06,33.91,33.91,0,0,1-12.8,4.9,31.74,31.74,0,0,1-8.13.24,41.13,41.13,0,0,1-8.52-1.88c-5.7-1.83-10.86-4.22-15.79-5.69a34,34,0,0,0-13.45-1.55,19.57,19.57,0,0,0-8.61,2.91,15.67,15.67,0,0,0-2,1.54,7.13,7.13,0,0,1-.66.57,4,4,0,0,1,.59-.65,13.44,13.44,0,0,1,1.93-1.62,19,19,0,0,1,8.68-3.11,33.74,33.74,0,0,1,13.63,1.45c5,1.46,10.16,3.84,15.8,5.66a41.93,41.93,0,0,0,8.42,1.86,30.86,30.86,0,0,0,8-.21,34,34,0,0,0,12.67-4.73,33.17,33.17,0,0,0,7-5.88,23.22,23.22,0,0,0,1.61-1.92A6.6,6.6,0,0,1,612.44,136.3Z"/><path class="cls-4" d="M591.7,89.3a8.08,8.08,0,0,1-1.15.91c-.76.57-1.9,1.32-3.35,2.2a56.45,56.45,0,0,1-5.26,2.76,60.82,60.82,0,0,1-6.8,2.62,61.83,61.83,0,0,1-7.08,1.72,54.56,54.56,0,0,1-5.9.72,39.89,39.89,0,0,1-4,.1,7.14,7.14,0,0,1-1.47-.09,9.08,9.08,0,0,1,1.46-.11c.94,0,2.31-.11,4-.27s3.66-.42,5.84-.82a71,71,0,0,0,7-1.75,67.67,67.67,0,0,0,6.76-2.55c2-.92,3.81-1.82,5.27-2.65s2.63-1.53,3.42-2A8.51,8.51,0,0,1,591.7,89.3Z"/><path class="cls-4" d="M537,209.24a7.79,7.79,0,0,1-1-.87l-2.74-2.46a112.18,112.18,0,0,0-9.52-7.49,30.7,30.7,0,0,0-5.76-3.25,15.75,15.75,0,0,0-5.23-1.22,14.2,14.2,0,0,0-4.91.66s.1-.08.31-.18a6.5,6.5,0,0,1,.94-.36,11.16,11.16,0,0,1,3.68-.49,15.58,15.58,0,0,1,5.38,1.14A29.17,29.17,0,0,1,524,198a88.12,88.12,0,0,1,9.48,7.64c1.14,1.06,2,2,2.63,2.58A6.37,6.37,0,0,1,537,209.24Z"/><path class="cls-4" d="M620.25,227.94s-.1.13-.34.35-.58.55-1.07.92a28.17,28.17,0,0,1-4.33,2.87,30.63,30.63,0,0,1-32.56-2,27.6,27.6,0,0,1-4-3.37c-.44-.43-.74-.8-1-1a2.18,2.18,0,0,1-.3-.39,17.45,17.45,0,0,1,1.39,1.29,32.16,32.16,0,0,0,4,3.21,31.13,31.13,0,0,0,32.18,2,32.27,32.27,0,0,0,4.38-2.7A17.72,17.72,0,0,1,620.25,227.94Z"/><path class="cls-4" d="M658,286.53s-.13-.14-.35-.42l-1-1.26a41,41,0,0,0-4.1-4.54l-1.58-1.4-.84-.75-1-.71-2-1.5-2.33-1.43a47.18,47.18,0,0,0-11.78-4.92,45,45,0,0,0-15.39-1.34,41.8,41.8,0,0,0-16.86,5.22c-5.47,3.1-10.57,7.33-16,11.5a84.91,84.91,0,0,1-8.64,5.93,38.36,38.36,0,0,1-10,4.19,34.19,34.19,0,0,1-10.77.87,48.71,48.71,0,0,1-10.31-2,103.76,103.76,0,0,1-18.19-7.8c-5.6-2.89-10.89-5.7-16.07-7.81a53.85,53.85,0,0,0-15-4,36.51,36.51,0,0,0-12.7,1,26.87,26.87,0,0,0-8.76,4,23.48,23.48,0,0,0-4.5,4.12l-.95,1.27c-.22.29-.34.43-.34.43s.09-.16.29-.46l.92-1.31a22.91,22.91,0,0,1,4.46-4.22,27.08,27.08,0,0,1,8.81-4.06,36.76,36.76,0,0,1,12.81-1A53.58,53.58,0,0,1,511,278c5.22,2.1,10.53,4.9,16.13,7.78a103.24,103.24,0,0,0,18.11,7.74,48,48,0,0,0,10.2,1.93,33.41,33.41,0,0,0,10.61-.86,37.93,37.93,0,0,0,9.83-4.13,84.41,84.41,0,0,0,8.59-5.88c5.44-4.15,10.57-8.4,16.09-11.52a38.1,38.1,0,0,1,4.22-2.05c.71-.3,1.4-.62,2.12-.88l2.16-.68a42.54,42.54,0,0,1,8.56-1.62,45.4,45.4,0,0,1,15.52,1.41,47.18,47.18,0,0,1,11.84,5l2.33,1.46,2,1.53,1,.72.84.76,1.57,1.42a36.88,36.88,0,0,1,4,4.63l.94,1.29C657.91,286.37,658,286.53,658,286.53Z"/><path class="cls-4" d="M634,332.13a1.58,1.58,0,0,1-.48.2l-1.42.49a21.13,21.13,0,0,1-2.28.67c-.9.22-1.92.52-3.08.71l-1.8.34c-.63.11-1.29.17-2,.26-1.36.21-2.83.27-4.38.37a59.51,59.51,0,0,1-10-.51,60.73,60.73,0,0,1-9.78-2.33c-1.46-.53-2.85-1-4.1-1.58-.63-.28-1.24-.53-1.82-.81l-1.63-.83c-1.06-.51-1.95-1.08-2.75-1.55a20.3,20.3,0,0,1-2-1.28l-1.23-.87c-.28-.2-.42-.31-.41-.33a2.29,2.29,0,0,1,.47.25l1.28.78c.54.35,1.22.77,2,1.2s1.7,1,2.76,1.47l1.64.8c.58.27,1.19.5,1.82.77,1.25.56,2.63,1,4.08,1.52a57.22,57.22,0,0,0,19.66,2.82c1.53-.09,3-.13,4.34-.32.68-.08,1.33-.13,2-.23l1.8-.3c1.15-.16,2.16-.44,3.07-.63s1.67-.4,2.29-.58l1.45-.4A2,2,0,0,1,634,332.13Z"/><path class="cls-5" d="M425.71,185.67l-7-1.1-43.37-14L350,163.25a27.32,27.32,0,0,0-22,1.5C316,170.86,283,201.63,283,201.63l23.81,24.55-11.21,49.68c12.55,35.69,37.12,39.77,37.12,39.77a87,87,0,0,0,35.2-5.82c22.82-8.7,46.77-29.09,49.77-37.86,1.8-5.26,3.29-16.32,4.47-28.81l36.13-14.72,9.78-50Z"/><path class="cls-6" d="M373,274.11a1.79,1.79,0,0,1-.35.31c-.25.18-.59.47-1.08.79a24.7,24.7,0,0,1-4.34,2.33,26.48,26.48,0,0,1-30-6.54,25,25,0,0,1-3-3.93c-.31-.49-.5-.91-.65-1.17a2,2,0,0,1-.19-.43,15.67,15.67,0,0,1,1,1.49A27,27,0,0,0,367,277.2a29,29,0,0,0,4.37-2.16A13.78,13.78,0,0,1,373,274.11Z"/><path class="cls-6" d="M359.23,172.65s0,.07.08.23l.18.71c.15.62.36,1.55.61,2.74a66.94,66.94,0,0,1,1.43,10.23,32.4,32.4,0,0,1-.41,7.15,23.18,23.18,0,0,1-2.85,7.7,30.28,30.28,0,0,1-5.93,6.87c-2.35,2.1-4.95,4.05-7.6,6.06-5.63,4.23-11.12,8.06-16,11.54s-9.23,6.6-12.69,9.21l-.11.09-.11-.09a74.8,74.8,0,0,1-6.94-6.25,18.28,18.28,0,0,1-1.63-1.92,6.38,6.38,0,0,1-.35-.54,1.1,1.1,0,0,1-.11-.2,8.3,8.3,0,0,1,.54.69c.36.44.91,1.07,1.68,1.84a86.16,86.16,0,0,0,7,6.11h-.22c3.44-2.67,7.74-5.84,12.64-9.33s10.36-7.34,16-11.57c2.64-2,5.24-3.95,7.57-6a30.22,30.22,0,0,0,5.86-6.74,22.81,22.81,0,0,0,2.84-7.53,32.25,32.25,0,0,0,.46-7,72.62,72.62,0,0,0-1.26-10.21c-.22-1.16-.39-2.09-.51-2.76-.06-.29-.1-.52-.13-.72A.74.74,0,0,1,359.23,172.65Z"/><path class="cls-6" d="M547.56,195.16c10.15-8.71,13.59-24.37,8-36.53l-14.3-1.47a20.41,20.41,0,0,0,10.4-20.59,27.31,27.31,0,0,1-31.23,5.75c-6.68-3.3-12.1-9.45-19.44-10.74-6.66-1.17-13.21,1.95-19.59,4.22s-14.1,3.51-19.38-.71c-4.18-3.36-5.48-9.23-5.21-14.58s1.82-10.58,2.15-15.94a36.16,36.16,0,0,0-11.59-28.21,27.46,27.46,0,0,0-43.11-13.72c-3.12,2.43-5.77,5.55-9.32,7.3-4,2-8.66,2-13,3s-8.9,3.94-9.36,8.39l-1.75,9.11a20.22,20.22,0,0,1-1,1.92c-3.68,6.47-11.22,10.72-12.87,18-.92,4.07.22,8.47-1.15,12.41-1.81,5.19-7.41,8.11-10,12.94-3.58,6.64-1.15,18.27,4.58,23.18S368,169,375.33,170.58c2-7.67,3.77-15.86,5.48-24.26,3,2.89,6.17,5.65,9.31,8.37,8.21,7.14,16.6,14.39,22.3,23.67,10.83,17.62,11,41,24.65,56.53,2.67,3.05,5.92,5.77,9.8,6.94s8.48.56,11.35-2.31c3.39-3.38,3.83-9.07,7.58-12.05,5-3.95,12.26-.8,17.61,2.63,3.88,2.48,7.76,5.1,12.15,6.46s9.51,1.27,13.25-1.41,5.38-8.4,2.68-12.13c-1.07-1.49-2.69-2.53-3.76-4s-1.38-3.87.09-5,3.88,0,5.63,1a33.51,33.51,0,0,0,48.74-18.13A27.79,27.79,0,0,1,547.56,195.16Z"/><path class="cls-6" d="M538.65,116.68a11,11,0,0,1,1.3,1.11,14.92,14.92,0,0,1,2.94,3.89,11.22,11.22,0,0,1,1.1,3.37,8,8,0,0,1-3.56,7.91,6,6,0,0,1-2.52.9,5.77,5.77,0,0,1-2.8-.4c-3.71-1.52-5.57-5.8-9.59-7.72s-8.91-2.21-13.71-1.11-9.49,3.72-14.22,6.37-9.76,5.51-15.55,6.5a21.64,21.64,0,0,1-8.6-.06,16.42,16.42,0,0,1-4-1.48,15.21,15.21,0,0,1-3.36-2.48,18.94,18.94,0,0,1-4.3-6.82,30.76,30.76,0,0,1-1.77-7.52c-.53-5-.11-9.79-.06-14.23a41.85,41.85,0,0,0-1.21-12.22,28.49,28.49,0,0,0-1.91-5,28.87,28.87,0,0,0-2.43-4.12,30.91,30.91,0,0,0-5.11-5.71A32.49,32.49,0,0,0,445.4,75l-1.09-.65a1.85,1.85,0,0,1-.36-.23,2.2,2.2,0,0,1,.39.19l1.12.6a30.83,30.83,0,0,1,4,2.82,29.92,29.92,0,0,1,5.22,5.69,28.3,28.3,0,0,1,2.49,4.15,28.68,28.68,0,0,1,2,5,41.59,41.59,0,0,1,1.29,12.32c0,4.46-.43,9.22.11,14.17a30.5,30.5,0,0,0,1.75,7.4,18.46,18.46,0,0,0,4.2,6.63,14.72,14.72,0,0,0,3.24,2.4,16.19,16.19,0,0,0,3.85,1.43,21.39,21.39,0,0,0,8.4.05c5.68-1,10.66-3.79,15.39-6.43s9.4-5.27,14.36-6.39a24.44,24.44,0,0,1,7.33-.62,19.24,19.24,0,0,1,3.49.56,16.49,16.49,0,0,1,3.2,1.25c4.15,2,6,6.34,9.53,7.76a5.36,5.36,0,0,0,5-.45,7.7,7.7,0,0,0,3-3.55,7.59,7.59,0,0,0,.5-4,10.81,10.81,0,0,0-1-3.31,15.71,15.71,0,0,0-2.84-3.91c-.39-.4-.7-.69-.91-.88A2.87,2.87,0,0,1,538.65,116.68Z"/><path class="cls-6" d="M375.18,174.4s0-.15-.08-.45a7.79,7.79,0,0,0-.27-1.31,11.16,11.16,0,0,0-2.45-4.46,19.15,19.15,0,0,0-6.63-4.61c-2.9-1.32-6.5-2-10.44-2.72s-8.41-1.58-12.43-4.26a18.45,18.45,0,0,1-2.94-28.11c4.14-4.25,10-6.36,14.78-10.09a19,19,0,0,0,3.14-3.2,13.2,13.2,0,0,0,1.92-4c.8-2.84.73-5.81,1-8.7a19.87,19.87,0,0,1,.8-4.27,10.81,10.81,0,0,1,2.11-3.74,15,15,0,0,1,7.15-4c2.57-.75,5.13-1.21,7.54-1.88A20.74,20.74,0,0,0,385,85.72a25.33,25.33,0,0,0,4.93-4.62A56.55,56.55,0,0,0,393.63,76c2.21-3.34,4.1-6.47,6.11-9a28.94,28.94,0,0,1,5.83-5.75,16.08,16.08,0,0,1,4.61-2.37,11.2,11.2,0,0,1,1.75-.44s-.61.15-1.72.54a16.9,16.9,0,0,0-4.52,2.43A29.16,29.16,0,0,0,400,67.24c-2,2.5-3.84,5.63-6,9a52.69,52.69,0,0,1-3.72,5.11,25.35,25.35,0,0,1-5,4.72,21,21,0,0,1-6.7,3c-2.44.68-5,1.16-7.53,1.9a14.53,14.53,0,0,0-6.92,3.85,10.34,10.34,0,0,0-2,3.56,19.2,19.2,0,0,0-.77,4.17c-.27,2.85-.19,5.85-1,8.79a13.56,13.56,0,0,1-2,4.12A18.79,18.79,0,0,1,355,118.8a67.94,67.94,0,0,1-7.69,4.88,33.58,33.58,0,0,0-7,5.15,18,18,0,0,0,2.82,27.4c3.9,2.64,8.34,3.47,12.25,4.26s7.56,1.45,10.48,2.81a19,19,0,0,1,6.67,4.75,11.11,11.11,0,0,1,2.41,4.56,7,7,0,0,1,.21,1.33C375.18,174.25,375.18,174.4,375.18,174.4Z"/><path class="cls-5" d="M455,84.63s-.28,0-.76-.19a19.05,19.05,0,0,1-2-.81,26.43,26.43,0,0,1-10.69-9.19,16.92,16.92,0,0,1-1.09-1.86,2.31,2.31,0,0,1-.31-.73c.07,0,.64.93,1.7,2.38a30.85,30.85,0,0,0,10.55,9.07C454,84.14,455.06,84.55,455,84.63Z"/><path class="cls-5" d="M488.27,152.84s-.63-.16-1.76-.4a29.73,29.73,0,0,0-4.86-.6,64.74,64.74,0,0,0-7.26.21c-2.74.19-5.76.47-8.95.4a24.31,24.31,0,0,1-8.83-1.66,15.64,15.64,0,0,1-5.92-4.32,11,11,0,0,1-2.27-4.39,7.58,7.58,0,0,1-.21-1.33,1.67,1.67,0,0,1,0-.47c.06,0,.09.64.41,1.75a11.6,11.6,0,0,0,2.37,4.2,15.57,15.57,0,0,0,5.82,4.12,24.31,24.31,0,0,0,8.65,1.58c3.15.07,6.16-.19,8.91-.36a58.8,58.8,0,0,1,7.31-.09,25.44,25.44,0,0,1,4.89.76c.56.16,1,.3,1.28.41A1.88,1.88,0,0,1,488.27,152.84Z"/><path class="cls-5" d="M547.2,198.31s-.09.05-.29.13a4.18,4.18,0,0,1-.89.29,7,7,0,0,1-3.58-.16,11.54,11.54,0,0,1-4.8-3,20.11,20.11,0,0,1-3.86-6.46c-1.09-2.57-2-5.51-3.79-8.23a21.17,21.17,0,0,0-3.17-3.87,25.38,25.38,0,0,0-4.24-3.21c-6.28-3.78-14.53-5.33-23-4.84s-16.44,2.1-23.81,2.62a47.06,47.06,0,0,1-19.4-2,26.87,26.87,0,0,1-11.13-7A15.34,15.34,0,0,1,444,161a9.81,9.81,0,0,1-.86-1.25l-.49-.8a1.56,1.56,0,0,1-.15-.28,1.31,1.31,0,0,1,.2.25l.52.77a11,11,0,0,0,.9,1.21,14.77,14.77,0,0,0,1.36,1.55,27,27,0,0,0,11.09,6.76,47.23,47.23,0,0,0,19.26,1.88c7.32-.54,15.28-2.21,23.81-2.66s16.85,1.08,23.23,4.95a25.81,25.81,0,0,1,4.31,3.29,22.15,22.15,0,0,1,3.22,4c1.81,2.79,2.7,5.76,3.77,8.32a19.75,19.75,0,0,0,3.72,6.4,11.29,11.29,0,0,0,4.65,3,7.17,7.17,0,0,0,3.5.26C546.8,198.48,547.19,198.27,547.2,198.31Z"/><path class="cls-7" d="M389.92,84.63a7.47,7.47,0,0,0-7.62,6.64h0l-8.09,84.21c-1.4,11.84,14.09,37.23,26.78,38.63h0c12.81,1.42,14.07-4.79,15.73-16,2.79-18.75,3.71-25.81,3.7-25.7s16.5-.55,22.62-21.18c3-10.26,4.78-27.51,5.75-41.67.87-12.75-5.46-29.36-18.24-29.68Z"/><path class="cls-6" d="M443.21,120.72a2.72,2.72,0,0,1-3,2.39,2.62,2.62,0,0,1-2.47-2.81,2.73,2.73,0,0,1,3-2.38A2.6,2.6,0,0,1,443.21,120.72Z"/><path class="cls-6" d="M444.36,115.27c-.32.38-2.48-1-5.41-.79s-5,1.83-5.31,1.49c-.16-.15.13-.81,1-1.56a7.5,7.5,0,0,1,4.22-1.63,7.16,7.16,0,0,1,4.33,1.08C444.16,114.48,444.51,115.1,444.36,115.27Z"/><path class="cls-6" d="M417.48,122.24c-.35.35-2.37-1.24-5.3-1.31s-5.12,1.33-5.43,1c-.15-.16.21-.79,1.17-1.45a7.49,7.49,0,0,1,4.36-1.21,7.18,7.18,0,0,1,4.2,1.49C417.36,121.44,417.65,122.09,417.48,122.24Z"/><path class="cls-6" d="M422.94,137.73c0-.17,1.86-.24,4.84-.23.75,0,1.47,0,1.67-.53a3.81,3.81,0,0,0-.21-2.26q-.69-2.84-1.45-5.94c-2-8.46-3.33-15.37-3-15.44S427,120,429,128.49q.72,3.12,1.36,6a4.32,4.32,0,0,1,0,3,1.85,1.85,0,0,1-1.36.92,4.66,4.66,0,0,1-1.29,0C424.76,138.12,422.93,137.9,422.94,137.73Z"/><path class="cls-8" d="M420.42,172.4a54,54,0,0,1-27.23-11.24s5.21,15.42,26.56,16.23Z"/><path class="cls-6" d="M417.89,117.23c-.46.71-3.23-.32-6.67-.7s-6.37-.1-6.65-.9c-.12-.38.52-1,1.79-1.5a11.05,11.05,0,0,1,5.21-.56,11.19,11.19,0,0,1,4.94,1.78C417.62,116.14,418.1,116.89,417.89,117.23Z"/><path class="cls-6" d="M443.92,111.34c-.48.7-2.53.11-5,.2s-4.46.68-5,0c-.22-.32.07-1,.93-1.68a7,7,0,0,1,4-1.3,6.89,6.89,0,0,1,4,1.14C443.82,110.34,444.13,111,443.92,111.34Z"/><path class="cls-8" d="M415.86,143a6.26,6.26,0,0,1,4.59-1,3.57,3.57,0,0,1,2.13,1.11,4.54,4.54,0,0,1,.75,3.06,6.13,6.13,0,0,1-.29,1.9,2.47,2.47,0,0,1-1.22,1.43,3.43,3.43,0,0,1-2,.1,7.52,7.52,0,0,1-3.09-1.12,3.81,3.81,0,0,1-1.72-2.7,2.6,2.6,0,0,1,1.55-2.66"/><path class="cls-6" d="M423.75,149.46c-.21.08-.59-.56-1.3-1.43a10.69,10.69,0,0,0-7.26-4.14c-1.11-.16-1.85-.16-1.9-.39s.65-.59,1.92-.71a8.36,8.36,0,0,1,8.18,4.66C423.93,148.6,424,149.4,423.75,149.46Z"/><path class="cls-6" d="M373.08,169.69c6.95-1.38,12.31-7.36,14.7-14s2.26-13.95,1.63-21a3.37,3.37,0,0,0-1-2.48c-1-.81-2.56-.15-3.7.54a116.88,116.88,0,0,0-12.57,8.84c-3.72,3-7.4,6.45-8.83,11-2.19,7,2.44,15.34,9.53,17.18"/><path class="cls-7" d="M532.84,168.06l-32.78-52.68L491,96.84s-2.88-3.83-5.89-7.1c-4.92-5.37-9.79-1.2-9.79-1.2a3.31,3.31,0,0,0-3.29-2,5.57,5.57,0,0,0-4.53,2.31s-1.34-1.5-5.06-1.73a3.87,3.87,0,0,0-2.35.76c-1.22-1.07-3.46-2.61-5.61-1.83-1.68.61-11.87,8.36-14.38,12.26-1.24,1.93,1.06,4.43,4.16,3.26A26.28,26.28,0,0,0,448,100a9.91,9.91,0,0,0,2.52-2s-2.57,4.5,0,5.29a5.89,5.89,0,0,0,4.83-1.17c1-.82,2.1-1.89,3.17-2.94l-.12.18c-1.42,2.1,2.28,5.21,4.07,3.95a26.47,26.47,0,0,0,2.4-1.9c4.15,3-1.62,6.89-4.06,6.69a75.93,75.93,0,0,0-11.28,0c-2.12.18-4,.68-5.16,1.85-1.38,1.42.07,4.4,2,4.71,3.59.55,8.17,1.35,12.93,2.57,5.6,1.44,20.27,6.21,20.27,6.21l1.43,1.16,19.93,48.62-34.12,7.22-7.62,43.24L520.78,207C534.66,199.73,541.24,181.26,532.84,168.06Z"/><path class="cls-8" d="M479.56,123.42a4.2,4.2,0,0,1-.78-.19l-2.21-.63-8.11-2.41-5.59-1.69c-2-.61-4.15-1.26-6.43-1.84a61.37,61.37,0,0,0-7.22-1.49,12.63,12.63,0,0,1-3.92-.7,2.79,2.79,0,0,1-.88-.66,1.39,1.39,0,0,1-.29-.54l-.08-.53a5.11,5.11,0,0,1,.13-2.12A2.92,2.92,0,0,1,445.6,109a10.46,10.46,0,0,1,1.9-.76,12.61,12.61,0,0,1,4-.48c2.6,0,5.05.39,7.39.29a23.18,23.18,0,0,0,3.39-.33c1.09-.2,2.14-.48,3.15-.74a16.61,16.61,0,0,1,5.83-.74,15.76,15.76,0,0,1,4.7,1.19A29.68,29.68,0,0,1,479.2,109c.87.49,1.53.9,2,1.17a4.6,4.6,0,0,1,.66.46,5.3,5.3,0,0,1-.72-.36c-.5-.28-1.18-.64-2-1.09a32.23,32.23,0,0,0-3.29-1.52,16.23,16.23,0,0,0-4.62-1.1,16.59,16.59,0,0,0-5.69.8c-1,.26-2.06.56-3.17.77a22.9,22.9,0,0,1-3.47.36c-2.38.11-4.86-.24-7.4-.26a12.23,12.23,0,0,0-3.8.46c-1.22.4-2.61.84-3,2.07a4.66,4.66,0,0,0-.1,1.9l.06.46a.9.9,0,0,0,.19.34,2.33,2.33,0,0,0,.71.52,12.77,12.77,0,0,0,3.75.67,59.15,59.15,0,0,1,7.28,1.53c2.29.6,4.43,1.25,6.43,1.89l5.58,1.75,8.06,2.57,2.18.72A4.09,4.09,0,0,1,479.56,123.42Z"/><path class="cls-8" d="M454.29,86.11c.06.08-1.54,1-3.9,2.8a39.52,39.52,0,0,0-3.92,3.39c-1.4,1.37-2.87,3-4.61,4.45A4.78,4.78,0,0,0,440,99.22a1.74,1.74,0,0,0,1.2,2.14,5.15,5.15,0,0,0,2.64,0,12.53,12.53,0,0,0,2.3-.65,16.77,16.77,0,0,0,4.06-2.47,4.18,4.18,0,0,1-.91.94,12,12,0,0,1-3,1.87,12.73,12.73,0,0,1-2.35.74,5.63,5.63,0,0,1-2.88,0,2.38,2.38,0,0,1-1.31-1,2.35,2.35,0,0,1-.24-1.7,5.21,5.21,0,0,1,2-2.76c1.71-1.47,3.18-3,4.62-4.4a34.52,34.52,0,0,1,4-3.35c1.22-.87,2.25-1.49,3-1.91A6.77,6.77,0,0,1,454.29,86.11Z"/><path class="cls-8" d="M466.8,90.25a14.4,14.4,0,0,1-1.16,1.38l-3.29,3.62-4.93,5.32a12,12,0,0,1-3.46,2.64,5.21,5.21,0,0,1-2.3.57,3.2,3.2,0,0,1-2.3-.92,2.11,2.11,0,0,1-.54-1.25,3.63,3.63,0,0,1,.13-1.28A7.41,7.41,0,0,1,450,98.14h0v0c1.77-1.87,3.41-3.63,4.88-5.25s2.94-2.89,4.12-4a8,8,0,0,1,1.71-1.38,4.2,4.2,0,0,1,1.62-.35c.88-.06,1.4,0,1.36.11a4.19,4.19,0,0,0-1.35.06,4.53,4.53,0,0,0-1.51.4,9.17,9.17,0,0,0-1.61,1.39c-1.14,1.14-2.55,2.47-4,4.06s-3.08,3.42-4.84,5.31l0,0a7,7,0,0,0-1,2,3.47,3.47,0,0,0-.12,1.1,1.75,1.75,0,0,0,.42,1,2.62,2.62,0,0,0,1.92.75,4.83,4.83,0,0,0,2.07-.51,11.82,11.82,0,0,0,3.33-2.51l5-5.25,3.41-3.5.95-.94Q466.77,90.24,466.8,90.25Z"/><path class="cls-8" d="M482.12,95.07c.05,0-.05.31-.4.59a2.16,2.16,0,0,1-1.66.41,2.2,2.2,0,0,1-1.42-.95c-.23-.38-.23-.66-.17-.68s.2.19.46.45a2.28,2.28,0,0,0,1.22.66,2.3,2.3,0,0,0,1.38-.2C481.86,95.19,482.06,95,482.12,95.07Z"/><path class="cls-8" d="M483.32,99.66c-.11.09-.86-.66-1.52-1.78a4.21,4.21,0,0,1-.83-2.2c.13-.05.63.85,1.28,1.93A7.81,7.81,0,0,1,483.32,99.66Z"/><path class="cls-8" d="M485.53,117.54a6.31,6.31,0,0,1-.95-2.08,17,17,0,0,1-.82-5.47,17.2,17.2,0,0,1,1-5.44,6.67,6.67,0,0,1,1-2.06,26.61,26.61,0,0,0-1.45,7.51A26.25,26.25,0,0,0,485.53,117.54Z"/><path class="cls-8" d="M512.45,186.83c-.1,0-.2-1.06-.72-2.69a15.91,15.91,0,0,0-1.18-2.74,18.13,18.13,0,0,0-2.09-3,18.4,18.4,0,0,0-2.7-2.46,17.24,17.24,0,0,0-2.57-1.53c-1.55-.73-2.6-1-2.58-1.06a2.58,2.58,0,0,1,.75.1,10.7,10.7,0,0,1,2,.63,14.11,14.11,0,0,1,2.7,1.47,15.41,15.41,0,0,1,4.94,5.62,14.28,14.28,0,0,1,1.11,2.87,11.24,11.24,0,0,1,.37,2A2.48,2.48,0,0,1,512.45,186.83Z"/><path class="cls-7" d="M398.07,283.14a14.23,14.23,0,0,0-8.33,1.06c-4.45-2-9.94,1.43-9.94,1.43-1.61-.77-11.31,5.57-11.31,5.57l-12.08,5.7L291.88,249l18.29-19-25.63-26.67-30,30.9a22.65,22.65,0,0,0-6,14.55,29.58,29.58,0,0,0,16.43,28l76,39a88.75,88.75,0,0,0,17.29-2.69c6.56-1.71,17.77-6.69,17.77-6.69s0,.34,2,4.23c3.61,7,8.9-.55,8.9-.55a14.51,14.51,0,0,0,2.06,3.41c4.57,4.43,7.74-1.52,7.74-1.52s1.37,2.39,5.45.61-.59-14.06-.59-14.06,1.37,2.68,4-.71S402.44,284.05,398.07,283.14Z"/><path class="cls-8" d="M388.94,284.82a2,2,0,0,1,.84-.32,4.9,4.9,0,0,1,2.45.07,9.35,9.35,0,0,1,3.23,1.65,11.82,11.82,0,0,1,1.61,1.44,9.58,9.58,0,0,1,1.26,1.95,49,49,0,0,1,2.95,7.41c.3,1,.5,1.77.63,2.33a2.63,2.63,0,0,1,.13.88c-.07,0-.43-1.18-1.11-3.1a66.36,66.36,0,0,0-3.07-7.29,8.86,8.86,0,0,0-1.18-1.85,13.09,13.09,0,0,0-1.51-1.39,9.91,9.91,0,0,0-3-1.68A6.69,6.69,0,0,0,388.94,284.82Z"/><path class="cls-8" d="M396.71,311.94a5.27,5.27,0,0,1-.57-1.11l-1.41-3.06c-1.19-2.59-2.93-6.12-4.59-10.16a26.91,26.91,0,0,0-2.63-5.46,9.08,9.08,0,0,0-3.71-3.1,6.06,6.06,0,0,0-3.2-.57c-.78.1-1.18.31-1.2.26s.09-.07.28-.17a3.31,3.31,0,0,1,.88-.29,5.87,5.87,0,0,1,3.39.43,9.17,9.17,0,0,1,3.95,3.16,26,26,0,0,1,2.72,5.54c1.65,4,3.34,7.58,4.45,10.21.56,1.31,1,2.39,1.26,3.14A5.77,5.77,0,0,1,396.71,311.94Z"/><path class="cls-8" d="M367.09,296.51a5.67,5.67,0,0,1,1-.57l2.88-1.39c.62-.28,1.27-.61,2-.93a5.66,5.66,0,0,1,2.59-.38,5.48,5.48,0,0,1,2.72,1,8.57,8.57,0,0,1,2,2.37,30.08,30.08,0,0,1,1.4,2.68c.43.87.87,1.69,1.31,2.47.87,1.56,1.69,2.95,2.29,4.16a23.44,23.44,0,0,1,1.28,3,4.13,4.13,0,0,1,.32,1.14c-.08,0-.62-1.56-1.92-3.92-.65-1.18-1.49-2.54-2.39-4.09-.45-.78-.9-1.6-1.34-2.48s-.86-1.78-1.39-2.64a8.34,8.34,0,0,0-1.85-2.23,5,5,0,0,0-2.45-1,5.51,5.51,0,0,0-2.39.3c-.72.29-1.41.61-2,.87l-3,1.24A4.32,4.32,0,0,1,367.09,296.51Z"/><path class="cls-8" d="M368.49,291.2a4.07,4.07,0,0,1-.88.56c-.58.33-1.43.79-2.49,1.35-2.11,1.11-5.05,2.63-8.31,4.27s-6.22,3.1-8.38,4.14c-1.07.52-1.95.93-2.56,1.2a3.5,3.5,0,0,1-1,.37,4.69,4.69,0,0,1,.89-.55c.58-.33,1.43-.79,2.49-1.35,2.11-1.12,5.05-2.63,8.31-4.27s6.22-3.11,8.37-4.14c1.08-.52,2-.93,2.57-1.2A4,4,0,0,1,368.49,291.2Z"/><path class="cls-8" d="M292.74,249.06a25.47,25.47,0,0,0-15,1.77,7.3,7.3,0,0,1,2-1.12,19.1,19.1,0,0,1,5.31-1.42,18.87,18.87,0,0,1,5.49.15A6.91,6.91,0,0,1,292.74,249.06Z"/><path class="cls-6" d="M435.25,75.84a201.52,201.52,0,0,0-47.52,5c-3.61.83-7.43,1.89-9.87,4.67-2.59,3-3,7.14-3.38,11q-.62,7.13-1.24,14.25a31.91,31.91,0,0,1-2.27,3.4c-3.76,4.91-8.55,9-12,14.16s-5.31,12-2.53,17.51c1.69,3.34,4.81,5.7,7.09,8.66,3.87,5,5.13,11.52,7.39,17.44s6.34,12,12.57,13.16c3,.57,6.06-.06,9.05.38,4.47.65,8.23,3.58,11.78,6.37s7.41,5.63,11.91,6.08,9.65-2.6,9.74-7.11a10.58,10.58,0,0,1-10.87-.31c-2.62-1.72-4.31-4.52-6.56-6.71-5.53-5.36-14.43-7.06-18.28-13.73-3-5.27-1.83-11.87-.45-17.8,1.19-5.15,2.41-10.72.92-15.66a17.39,17.39,0,0,0,.19-2.4c0-5.26-2.05-10.9.4-15.55,3.24-6.16,12.58-6.93,15.85-13.07,1.91-3.57,1.24-8.13,3.32-11.6,2-3.26,5.86-4.76,9.58-5.57s7.63-1.18,10.91-3.09S436.74,79.34,435.25,75.84Z"/><path class="cls-6" d="M447.37,183.13s0,.09-.15.25l-.49.69a13.9,13.9,0,0,1-2.3,2.33,15.53,15.53,0,0,1-4.57,2.45,15.79,15.79,0,0,1-6.8.79,14.3,14.3,0,0,1-7.66-3.14c-2.38-1.83-4.5-4.25-7.19-6.19a10.38,10.38,0,0,0-4.58-1.93,10.11,10.11,0,0,0-5.1.93,26.19,26.19,0,0,1-5.29,1.83,9.37,9.37,0,0,1-5.7-1,27.61,27.61,0,0,1-4.8-3.19,39.26,39.26,0,0,1-4.23-3.66,13.33,13.33,0,0,1-3-4.53,9.33,9.33,0,0,1-.34-5.19,28.09,28.09,0,0,1,1.51-4.7c.58-1.47,1.08-2.92,1.52-4.34a57.93,57.93,0,0,0,1.85-8,59.17,59.17,0,0,0,.65-11.93c-.06-1.41-.15-2.51-.23-3.25,0-.34-.05-.62-.07-.84a.91.91,0,0,1,0-.29,1,1,0,0,1,.06.28c0,.22.07.5.13.84.1.74.23,1.84.32,3.25a56.88,56.88,0,0,1-.48,12,58.87,58.87,0,0,1-1.8,8.11c-.44,1.43-.94,2.9-1.51,4.38a28,28,0,0,0-1.47,4.62,8.76,8.76,0,0,0,.34,4.93,12.73,12.73,0,0,0,2.9,4.34,38.46,38.46,0,0,0,4.17,3.61,28.27,28.27,0,0,0,4.72,3.14,8.81,8.81,0,0,0,5.39,1,25.42,25.42,0,0,0,5.18-1.79,10.57,10.57,0,0,1,5.35-.94,10.76,10.76,0,0,1,4.8,2c2.74,2,4.84,4.43,7.18,6.24a13.84,13.84,0,0,0,7.43,3.11,16,16,0,0,0,11.2-3A17.56,17.56,0,0,0,447.37,183.13Z"/><path class="cls-5" d="M347.46,151.33a10.42,10.42,0,0,1-.8-1.1,11.52,11.52,0,0,1-1.42-3.65,15.06,15.06,0,0,1,.1-6.18A18.92,18.92,0,0,1,348.8,133a34.36,34.36,0,0,1,7.22-6.83c2.87-2.14,6.13-4.12,9.38-6.44a34.42,34.42,0,0,0,8.9-8.65,22.29,22.29,0,0,0,2.7-6c.64-2.14,1.08-4.38,1.6-6.63a35.17,35.17,0,0,1,2-6.59,14.86,14.86,0,0,1,3.93-5.43,16.48,16.48,0,0,1,5.67-3.12,26.31,26.31,0,0,1,6.08-1.21,69.37,69.37,0,0,1,11.4.37,52.86,52.86,0,0,0,9.86.12,21,21,0,0,0,7.73-2.3A15.32,15.32,0,0,0,430,76.49a11.49,11.49,0,0,0,1.92-3.35c.28-.84.39-1.29.41-1.29a9.79,9.79,0,0,1-.31,1.33,11.3,11.3,0,0,1-1.86,3.44,15.53,15.53,0,0,1-4.75,3.95A21.22,21.22,0,0,1,417.6,83a53.32,53.32,0,0,1-9.93-.06,70.12,70.12,0,0,0-11.33-.32,25.73,25.73,0,0,0-6,1.2,16.26,16.26,0,0,0-5.5,3,14.3,14.3,0,0,0-3.78,5.26,34,34,0,0,0-2,6.49c-.52,2.25-1,4.5-1.62,6.67a22.47,22.47,0,0,1-2.76,6.1,34.91,34.91,0,0,1-9.05,8.76c-3.28,2.32-6.54,4.29-9.4,6.4a34.21,34.21,0,0,0-7.18,6.7,18.62,18.62,0,0,0-3.47,7.26,14.89,14.89,0,0,0-.19,6.07A12.73,12.73,0,0,0,347.46,151.33Z"/><path class="cls-5" d="M350.39,156.58a22.33,22.33,0,0,1-3.07-2.94,13.94,13.94,0,0,1-2.67-4.24,6.93,6.93,0,0,1-.46-3.13,6.21,6.21,0,0,1,1.35-3.27c1.62-2,4.3-3.05,7.11-3.64,1.41-.3,2.89-.53,4.36-.89a12.62,12.62,0,0,0,4.26-1.78,10.2,10.2,0,0,0,3.1-3.67,33.21,33.21,0,0,0,1.92-4.77,33.78,33.78,0,0,1,2-5,10.67,10.67,0,0,1,3.75-4.15,18.72,18.72,0,0,1,5.21-2c1.77-.46,3.52-.83,5.17-1.39a16.72,16.72,0,0,0,7.94-5.85,61.22,61.22,0,0,0,4.93-7.7,42.92,42.92,0,0,1,4.49-6.66A17.08,17.08,0,0,1,405,91.27a13.12,13.12,0,0,1,4.8-1.45,9.25,9.25,0,0,1,3.15.26,5.56,5.56,0,0,1,1,.37s-.37-.11-1.07-.27a9.58,9.58,0,0,0-3.11-.15,12.89,12.89,0,0,0-4.67,1.5,16.87,16.87,0,0,0-5,4.17,44.08,44.08,0,0,0-4.4,6.63,60.25,60.25,0,0,1-4.92,7.79,20.89,20.89,0,0,1-3.53,3.57,14.92,14.92,0,0,1-4.63,2.46c-1.68.58-3.45,1-5.2,1.41a18.35,18.35,0,0,0-5.06,2,10.18,10.18,0,0,0-3.58,4,34.92,34.92,0,0,0-2,4.93,33,33,0,0,1-2,4.83,10.78,10.78,0,0,1-3.26,3.84,13,13,0,0,1-4.43,1.82c-1.5.36-3,.58-4.38.87-2.77.56-5.37,1.59-6.91,3.45a5.88,5.88,0,0,0-1.31,3.08,6.69,6.69,0,0,0,.4,3,14.11,14.11,0,0,0,2.55,4.2,31,31,0,0,0,2.14,2.3l.59.57C350.33,156.5,350.4,156.57,350.39,156.58Z"/><path class="cls-8" d="M473.49,92a3.27,3.27,0,0,1-.52.78c-.36.47-.89,1.15-1.58,2-1.36,1.63-3.32,3.84-5.62,6.14-1.14,1.12-2.21,2.38-3.68,2.84a3.24,3.24,0,0,1-2.11,0,2.7,2.7,0,0,1-1.36-1.25,4.06,4.06,0,0,1-.37-2.54,2.38,2.38,0,0,1,.23-.9,4.29,4.29,0,0,1,0,.92,4.19,4.19,0,0,0,.49,2.34,2.33,2.33,0,0,0,1.19,1,2.82,2.82,0,0,0,1.81,0c1.28-.41,2.31-1.61,3.46-2.74,2.29-2.3,4.28-4.46,5.72-6A25.92,25.92,0,0,1,473.49,92Z"/><path class="cls-8" d="M481.13,92a4,4,0,0,1-.61.78c-.41.47-1,1.16-1.78,2l-2.68,2.91-1.61,1.71a13.59,13.59,0,0,1-1.87,1.73,4.71,4.71,0,0,1-2.44,1,2.5,2.5,0,0,1-2.27-1,1.93,1.93,0,0,1-.37-1.16,2.29,2.29,0,0,1,.34-1.07c.37-.59.75-1.06,1.08-1.52.66-.91,1.21-1.64,1.6-2.14a3.45,3.45,0,0,1,.65-.74,4.11,4.11,0,0,1-.48.86c-.34.53-.84,1.29-1.47,2.23-.31.47-.69,1-1,1.52a1.49,1.49,0,0,0,0,1.74,2,2,0,0,0,1.85.77,4.4,4.4,0,0,0,2.16-.88A13.73,13.73,0,0,0,474.08,99l1.63-1.68,2.77-2.83c.79-.81,1.44-1.45,1.9-1.88S481.1,92,481.13,92Z"/></g><g id="Plants"><path class="cls-1" d="M585.54,398.13a12.67,12.67,0,0,1,20.59-3.56,16.49,16.49,0,0,1-9.21,7.07,10,10,0,0,1-11.38-3.51"/><path class="cls-6" d="M578.44,399.77a12.58,12.58,0,0,1,2.87-.89c1.81-.44,4.33-.94,7.12-1.4s5.33-.81,7.18-1a15,15,0,0,1,3-.23,19.31,19.31,0,0,1-3,.59L588.51,398c-2.78.46-5.3.9-7.12,1.25A24.8,24.8,0,0,1,578.44,399.77Z"/><path class="cls-1" d="M228.11,334.82a16.66,16.66,0,0,1-3,27.69c-3.67-9.41-5.08-19.54,3-27.69"/><path class="cls-1" d="M242,342a21.55,21.55,0,0,0,31.15,18.11c-7-11-16.47-20.27-31.15-18.11"/><path class="cls-6" d="M210.15,307.26a2.82,2.82,0,0,1,.47.5l1.25,1.49c1.06,1.31,2.61,3.2,4.57,5.49,3.9,4.61,9.41,10.86,15.9,17.39,3.25,3.26,6.44,6.27,9.41,8.93s5.75,4.93,8.15,6.75a60.28,60.28,0,0,0,5.89,4c1.45.86,2.31,1.22,2.29,1.28a3.85,3.85,0,0,1-.64-.25,15.27,15.27,0,0,1-1.75-.85,53.25,53.25,0,0,1-6-3.89c-2.44-1.8-5.24-4.06-8.25-6.69s-6.2-5.66-9.46-8.92c-6.5-6.54-12-12.85-15.81-17.52-1.93-2.33-3.43-4.25-4.45-5.6l-1.18-1.55A3.94,3.94,0,0,1,210.15,307.26Z"/><path class="cls-6" d="M227.34,349.05c-.09,0,.24-1.41.53-3.68A39.12,39.12,0,0,0,226,327.75c-.75-2.16-1.36-3.45-1.28-3.49a3.69,3.69,0,0,1,.51.87,24.79,24.79,0,0,1,1.12,2.5,34.43,34.43,0,0,1,1.85,17.79,24.68,24.68,0,0,1-.57,2.67A4.36,4.36,0,0,1,227.34,349.05Z"/><path class="cls-1" d="M668.65,146.67a12.67,12.67,0,0,1,6.63-19.81,16.48,16.48,0,0,1,1.86,11.46,10,10,0,0,1-8.49,8.35"/><path class="cls-6" d="M666.73,153.71a12.38,12.38,0,0,1,.57-3c.47-1.8,1.23-4.25,2.15-6.93s1.82-5.08,2.5-6.8a15.23,15.23,0,0,1,1.22-2.75,18.21,18.21,0,0,1-.87,2.87c-.66,1.91-1.47,4.25-2.36,6.85s-1.73,5.1-2.29,6.86S666.8,153.72,666.73,153.71Z"/><path class="cls-1" d="M624.58,221.07a24.5,24.5,0,0,1,26.21-30.74c1.39,7.56-1,15.32-4.95,21.9-4.71,7.74-14.07,11-21.26,8.84"/><path class="cls-6" d="M595,250.67a4.19,4.19,0,0,1,.43-.54l1.29-1.47c1.15-1.25,2.83-3,4.92-5.25,4.2-4.4,10.06-10.42,16.58-17s12.45-12.54,16.77-16.81l5.14-5,1.42-1.36a3.28,3.28,0,0,1,.52-.44,3.68,3.68,0,0,1-.45.52l-1.35,1.42-5,5.16-16.66,16.91L602,243.66l-5,5.14-1.36,1.4A3.14,3.14,0,0,1,595,250.67Z"/><g class="cls-9"><path d="M624.58,221.07a24.5,24.5,0,0,1,26.21-30.74c1.39,7.56-1,15.32-4.95,21.9-4.71,7.74-14.07,11-21.26,8.84"/></g><path class="cls-1" d="M610.92,224a15,15,0,0,1-3.13-24.6c4,2.5,6.56,6.77,7.9,11.3,1.57,5.33-.81,10.94-4.77,13.3"/><g class="cls-9"><path d="M610.92,224a15,15,0,0,1-3.13-24.6c4,2.5,6.56,6.77,7.9,11.3,1.57,5.33-.81,10.94-4.77,13.3"/></g><path class="cls-6" d="M612.48,232.56a3.69,3.69,0,0,1-.3-.91c-.17-.6-.36-1.47-.57-2.55-.42-2.17-.86-5.18-1.26-8.52s-.68-6.37-.85-8.56a21.79,21.79,0,0,1-.14-3.57,26.35,26.35,0,0,1,.51,3.53c.27,2.33.62,5.27,1,8.54s.78,6.34,1.1,8.51S612.56,232.54,612.48,232.56Z"/><path class="cls-1" d="M423.67,340a23.66,23.66,0,0,1,38.92-7.09c-11.34,8.79-24.57,14.79-38.92,7.09"/><g class="cls-9"><path d="M423.67,340a23.66,23.66,0,0,1,38.92-7.09c-11.34,8.79-24.57,14.79-38.92,7.09"/></g><path class="cls-6" d="M417.26,343.46a4.61,4.61,0,0,1,.9-.7c.6-.43,1.49-1,2.63-1.66a50,50,0,0,1,19.35-6.39c1.3-.14,2.36-.21,3.09-.22a4.19,4.19,0,0,1,1.14,0c0,.08-1.61.19-4.18.56A57.66,57.66,0,0,0,421,341.42C418.67,342.65,417.31,343.53,417.26,343.46Z"/><path class="cls-1" d="M160.06,209.64a18.28,18.28,0,0,1,26,16.05c-11.05-.82-21.74-4.21-26-16.05"/><g class="cls-9"><path d="M160.06,209.64a18.28,18.28,0,0,1,26,16.05c-11.05-.82-21.74-4.21-26-16.05"/></g><path class="cls-6" d="M154.57,208.35a2.71,2.71,0,0,1,.88,0c.57.06,1.38.18,2.37.38a37.67,37.67,0,0,1,14.42,6.35,22.72,22.72,0,0,1,1.88,1.48c.43.38.65.6.63.63s-1-.7-2.72-1.81a45.84,45.84,0,0,0-14.29-6.29C155.79,208.64,154.56,208.43,154.57,208.35Z"/><path class="cls-1" d="M518.39,327.69a16.35,16.35,0,0,1,20.88-17.64c-3.77,9.17-9.63,17.32-20.88,17.64"/><path class="cls-6" d="M515.76,332a12.14,12.14,0,0,1,1.25-2.66,33.83,33.83,0,0,1,4.15-5.75,33.45,33.45,0,0,1,5.26-4.74,11,11,0,0,1,2.51-1.53c0,.06-.88.7-2.28,1.82a41.48,41.48,0,0,0-9.32,10.39A24,24,0,0,1,515.76,332Z"/><path class="cls-1" d="M597.08,275.75a16.34,16.34,0,0,1,17.19-21.25c-2,9.71-6.2,18.81-17.19,21.25"/><g class="cls-9"><path d="M597.08,275.75a16.34,16.34,0,0,1,17.19-21.25c-2,9.71-6.2,18.81-17.19,21.25"/></g><path class="cls-6" d="M595.31,280.47a11.64,11.64,0,0,1,.73-2.84,33.17,33.17,0,0,1,3-6.43,32.56,32.56,0,0,1,4.28-5.65,12,12,0,0,1,2.17-2,27.62,27.62,0,0,1-1.9,2.22,43.68,43.68,0,0,0-4.11,5.68,44.51,44.51,0,0,0-3.09,6.28A24.47,24.47,0,0,1,595.31,280.47Z"/><path class="cls-1" d="M3.91,204.23a16.66,16.66,0,0,1,10.16-11.74,16.66,16.66,0,0,1,15.4,2c-6.6,7.39-14.84,13.13-25.56,9.69"/><path class="cls-6" d="M0,207.42a12.4,12.4,0,0,1,2.06-2.09,34.5,34.5,0,0,1,5.82-4,33.28,33.28,0,0,1,6.55-2.73A11.37,11.37,0,0,1,17.3,198a27,27,0,0,1-2.76,1,42.77,42.77,0,0,0-6.41,2.84,41.59,41.59,0,0,0-5.83,3.87A25.16,25.16,0,0,1,0,207.42Z"/></g><g id="Speech_Bubble" data-name="Speech Bubble"><path class="cls-4" d="M461,73.73l8-14.48a38.67,38.67,0,1,1,9.35,10.19v0Z"/><path class="cls-6" d="M461,73.73l17.37-4.4-.07.21,0,0-.61-.77.8.59A39.16,39.16,0,0,0,486.41,74a38.24,38.24,0,0,0,10.52,2.85A34.47,34.47,0,0,0,503,77c1-.08,2.1-.12,3.17-.22l3.22-.53A38.48,38.48,0,0,0,533,60.72a38.15,38.15,0,0,0,6.28-14.78A38.86,38.86,0,0,0,538.66,29a37.65,37.65,0,0,0-8.31-15.58l-1.57-1.69c-.52-.57-1.13-1-1.69-1.56a20.43,20.43,0,0,0-1.74-1.49l-1.84-1.35a15.81,15.81,0,0,0-1.9-1.23L519.67,5l-2-1a17.63,17.63,0,0,0-2-.89A38.91,38.91,0,0,0,498.5.63a37.59,37.59,0,0,0-15.63,4.76A38.76,38.76,0,0,0,464.93,27.8a41.88,41.88,0,0,0-1.58,12.43,38.27,38.27,0,0,0,5.8,19l0,.06,0,.07L461,73.73c.43-.77,2.88-5.28,7.93-14.54v.12A38.34,38.34,0,0,1,463,40.24a42.08,42.08,0,0,1,1.55-12.56A39.24,39.24,0,0,1,482.63,5,38.23,38.23,0,0,1,498.46.13a39.37,39.37,0,0,1,17.32,2.49,18,18,0,0,1,2.07.9l2.06,1,2,1.16a18.7,18.7,0,0,1,1.93,1.25l1.86,1.37c.64.44,1.17,1,1.77,1.51s1.19,1,1.71,1.58l1.59,1.72a38,38,0,0,1,8.42,15.78A39.29,39.29,0,0,1,539.78,46a38.25,38.25,0,0,1-6.38,15A38.87,38.87,0,0,1,509.45,76.7l-3.26.52c-1.07.1-2.14.14-3.19.21a34.12,34.12,0,0,1-6.11-.26,38.45,38.45,0,0,1-10.61-2.92,39.44,39.44,0,0,1-8-4.7l.18-.19v0l.13.16-.2,0Z"/><path class="cls-1" d="M491,32.14l5,0a4.26,4.26,0,0,1,4.33-4.33,4,4,0,0,1,4,2.55,4.49,4.49,0,0,1-.31,4.06c-.84,1.41-2.69,2.71-6.08,2.14L498,47.83l5,0-.07-6.62a9.7,9.7,0,0,0,6.87-9.53c-.07-7.33-6.66-9-9.48-8.94C498.14,22.71,490.81,23.3,491,32.14Z"/><rect class="cls-1" x="498.04" y="50.13" width="5.03" height="4.7" transform="translate(-0.48 4.81) rotate(-0.55)"/></g></g></svg>