<svg xmlns="http://www.w3.org/2000/svg" viewBox="0 0 1284.8 280.84"><defs><style>.cls-1{fill:#6366f1;}</style></defs><g id="Layer_2" data-name="Layer 2"><g id="Layer_1-2" data-name="Layer 1"><path class="cls-1" d="M42.82.88v278H0V.88Z"/><path class="cls-1" d="M268.74,69V276H225.92V251.54a69.34,69.34,0,0,1-26.48,20.1A84,84,0,0,1,164.69,279q-24.42,0-43.76-10.14a73.2,73.2,0,0,1-30.42-30q-11.08-19.9-11.08-48.08V69h42.44V184.3q0,27.81,13.9,42.64t37.94,14.83q24,0,38.13-14.83t14.08-42.64V69Z"/><path class="cls-1" d="M584.91,76.29q19.33,10.3,30.42,30.53t11.08,48.86v124H584V162.16q0-28.23-13.9-43.31t-37.94-15.08q-24,0-38.13,15.08t-14.08,43.31V279.72H437.47V162.16q0-28.23-13.9-43.31t-37.93-15.08q-24,0-38.13,15.08t-14.09,43.31V279.72H290.6V69.42h42.82v24a71.25,71.25,0,0,1,26.67-20.23A83.49,83.49,0,0,1,394.65,66q24.8,0,44.32,10.68A72.6,72.6,0,0,1,469,107.59q9.38-19.08,29.29-30.35A85.64,85.64,0,0,1,541.15,66Q565.55,66,584.91,76.29Z"/><path class="cls-1" d="M699,267.12a95.72,95.72,0,0,1-37.18-37.56q-13.53-24.23-13.53-56.16,0-31.54,13.9-56a96,96,0,0,1,37.94-37.57q24-13.14,53.71-13.14t53.72,13.14a96.11,96.11,0,0,1,37.94,37.57q13.89,24.42,13.89,56t-14.27,56a98.8,98.8,0,0,1-38.88,37.75q-24.6,13.33-54.27,13.34Q722.64,280.46,699,267.12Zm83.95-31.74q14.46-7.89,23.48-23.66t9-38.32q0-22.53-8.64-38.12T783.87,111.8a62.65,62.65,0,0,0-30.8-7.89,61.58,61.58,0,0,0-30.61,7.89q-14.09,7.89-22.35,23.48t-8.26,38.12q0,33.43,17.09,51.65t43,18.22A63.7,63.7,0,0,0,782.93,235.38Z"/><path class="cls-1" d="M987.16,154.14H948.85V279.72h-43.2V154.14H881.23V119.2h24.42V68.36q0-35.67,19-52T984.16,0V35.68q-19.54,0-27.43,7.33t-7.88,25.35V119.2h38.31Z"/><path class="cls-1" d="M1051.84,1.75v278H1009V1.75Z"/><path class="cls-1" d="M1124.41,267.5a95.75,95.75,0,0,1-37.19-37.56q-13.52-24.23-13.52-56.16,0-31.54,13.9-56a96,96,0,0,1,37.94-37.57q24-13.14,53.71-13.14T1233,80.25a96,96,0,0,1,37.93,37.57q13.9,24.42,13.9,56t-14.27,56a98.8,98.8,0,0,1-38.88,37.75q-24.6,13.35-54.28,13.34Q1148.07,280.84,1124.41,267.5Zm83.95-31.74q14.46-7.89,23.48-23.66t9-38.32q0-22.53-8.64-38.12t-22.91-23.48a62.65,62.65,0,0,0-30.8-7.89,61.58,61.58,0,0,0-30.61,7.89q-14.09,7.89-22.35,23.48t-8.27,38.12q0,33.45,17.09,51.65t43,18.22A63.71,63.71,0,0,0,1208.36,235.76Z"/></g></g></svg>