<svg id="Layer_1" data-name="Layer 1" xmlns="http://www.w3.org/2000/svg" viewBox="0 0 995.55 995.55"><defs><style>.cls-1{fill:#6366f1;}</style></defs><path class="cls-1" d="M815.64,602.78a54.71,54.71,0,0,0-27.36-7.17,53.77,53.77,0,0,0-27.2,7.17q-12.51,7.19-19.85,21.36t-7.34,34.67q0,30.41,15.18,47t38.2,16.57a55.58,55.58,0,0,0,27.53-7.17q12.84-7.17,20.85-21.52t8-34.85q0-20.49-7.67-34.67T815.64,602.78Z"/><path class="cls-1" d="M257.28,826.11A323.52,323.52,0,0,1,297.85,974.3H260.69a287,287,0,0,0-62.23-169.69A289.64,289.64,0,0,0,19.67,817.83v69.11A87.36,87.36,0,0,0,107,974.3H395.91A289.56,289.56,0,0,0,257.28,826.11Z"/><path class="cls-1" d="M815.94,339a56.36,56.36,0,0,0-27.67-7.08,55.36,55.36,0,0,0-27.5,7.08,50.64,50.64,0,0,0-20.08,21.09q-7.43,14-7.42,34.25,0,30,15.35,46.4t38.64,16.36A57.17,57.17,0,0,0,815.09,450q13-7.08,21.09-21.25t8.1-34.42q0-20.25-7.76-34.25A52.55,52.55,0,0,0,815.94,339Z"/><path class="cls-1" d="M888.52,21.26H107a87.36,87.36,0,0,0-87.36,87.36V778.05A325,325,0,0,1,129.31,759.1c8.49,0,16.92.32,25.23,1A287,287,0,0,0,19.67,699.21V661.62A325,325,0,0,1,219.46,771.73,326.44,326.44,0,0,1,435.66,974.3H888.52a87.37,87.37,0,0,0,87.37-87.36V108.62A87.37,87.37,0,0,0,888.52,21.26ZM150.26,489.07H111.79V239.38h38.47Zm202.94-2.59H314.74V464.55A62.37,62.37,0,0,1,291,482.6a75.39,75.39,0,0,1-31.21,6.58q-21.94,0-39.31-9.11a65.73,65.73,0,0,1-27.33-27q-10-17.88-10-43.19V300.56h38.13V404.15q0,25,12.49,38.3t34.08,13.33q21.59,0,34.24-13.33t12.66-38.3V300.56H353.2ZM617,642H583V756.17H544.63V642H522.94V610.19h21.69V564q0-32.44,16.84-47.31t52.89-14.86v32.45q-17.36,0-24.36,6.66T583,564v46.24h34Zm57.45,114.21h-38V503.37h38Zm0-266.31H636.36V384.26q0-25.36-12.48-38.91T589.8,331.81q-21.6,0-34.25,13.54T542.9,384.26v105.6H504.77V384.26q0-25.36-12.48-38.91t-34.08-13.54q-21.6,0-34.25,13.54T411.3,384.26v105.6H372.84V301H411.3v21.6a64.18,64.18,0,0,1,24-18.17,74.94,74.94,0,0,1,31-6.51q22.27,0,39.82,9.6a65.19,65.19,0,0,1,27,27.77q8.43-17.14,26.32-27.26a76.88,76.88,0,0,1,38.47-10.11q21.93,0,39.31,9.25a66.46,66.46,0,0,1,27.33,27.43q9.94,18.18,10,43.89ZM870,709.71A88.73,88.73,0,0,1,835.49,744a97.67,97.67,0,0,1-48.22,12.13q-26,0-47-12.13a86.15,86.15,0,0,1-33-34.16q-12-22-12-51.07,0-28.69,12.34-50.9a86.27,86.27,0,0,1,33.7-34.16q21.35-12,47.71-12t47.72,12a86.31,86.31,0,0,1,33.69,34.16q12.35,22.22,12.35,50.9T870,709.71Zm.92-265.07A88.88,88.88,0,0,1,836,478.55a100.71,100.71,0,0,1-48.75,12q-26.32,0-47.58-12a86,86,0,0,1-33.4-33.75q-12.15-21.75-12.15-50.44,0-28.35,12.48-50.28a86.24,86.24,0,0,1,34.08-33.74q21.6-11.8,48.25-11.81t48.25,11.81a86.24,86.24,0,0,1,34.08,33.74q12.48,21.94,12.49,50.28T870.94,444.64ZM851.64,197.8A51.82,51.82,0,1,1,903.46,146,51.83,51.83,0,0,1,851.64,197.8Z"/></svg>